<svg viewBox="0 8 22 22" fill="none" xmlns="http://www.w3.org/2000/svg">
<mask id="path-1-outside-1_3_68" maskUnits="userSpaceOnUse" x="-0.720001" y="8" width="22" height="21" fill="black">
<rect fill="white" x="-0.720001" y="8" width="22" height="21"/>
<path d="M10.888 28C8.904 28 7.168 27.624 5.68 26.872C4.208 26.12 3.056 25.032 2.224 23.608C1.408 22.168 0.999999 20.448 0.999999 18.448C0.999999 16.512 1.4 14.848 2.2 13.456C3.016 12.048 4.128 10.968 5.536 10.216C6.96 9.448 8.584 9.064 10.408 9.064C11.8 9.064 13.056 9.304 14.176 9.784C15.312 10.248 16.28 10.904 17.08 11.752C17.896 12.584 18.52 13.568 18.952 14.704C19.384 15.84 19.6 17.072 19.6 18.4C19.6 19.088 19.52 19.768 19.36 20.44C19.2 21.096 18.912 21.672 18.496 22.168C18.816 22.376 19.08 22.648 19.288 22.984C19.512 23.304 19.624 23.672 19.624 24.088V25.72C19.624 26.344 19.392 26.88 18.928 27.328C18.464 27.776 17.896 28 17.224 28H10.888ZM1.288 18.448C1.288 20.384 1.688 22.048 2.488 23.44C3.288 24.816 4.408 25.872 5.848 26.608C7.288 27.344 8.968 27.712 10.888 27.712H17.224C17.816 27.712 18.312 27.52 18.712 27.136C19.128 26.736 19.336 26.264 19.336 25.72V24.088C19.336 23.704 19.232 23.36 19.024 23.056C18.816 22.752 18.552 22.52 18.232 22.36C17.88 22.2 17.552 22.12 17.248 22.12H13.648C13.056 22.12 12.56 22.312 12.16 22.696C11.76 23.064 11.56 23.528 11.56 24.088C11.56 24.184 11.512 24.232 11.416 24.232C11.32 24.232 11.272 24.184 11.272 24.088C11.272 23.448 11.496 22.912 11.944 22.48C12.408 22.048 12.976 21.832 13.648 21.832H17.248C17.424 21.832 17.592 21.856 17.752 21.904C17.912 21.936 18.072 21.984 18.232 22.048C18.648 21.568 18.928 21.008 19.072 20.368C19.232 19.728 19.312 19.072 19.312 18.4C19.312 17.12 19.104 15.928 18.688 14.824C18.288 13.72 17.696 12.76 16.912 11.944C16.128 11.128 15.184 10.496 14.08 10.048C12.992 9.584 11.768 9.352 10.408 9.352C8.648 9.352 7.08 9.72 5.704 10.456C4.328 11.192 3.248 12.24 2.464 13.6C1.68 14.96 1.288 16.576 1.288 18.448Z"/>
</mask>
<path d="M10.888 28C8.904 28 7.168 27.624 5.68 26.872C4.208 26.12 3.056 25.032 2.224 23.608C1.408 22.168 0.999999 20.448 0.999999 18.448C0.999999 16.512 1.4 14.848 2.2 13.456C3.016 12.048 4.128 10.968 5.536 10.216C6.96 9.448 8.584 9.064 10.408 9.064C11.8 9.064 13.056 9.304 14.176 9.784C15.312 10.248 16.28 10.904 17.08 11.752C17.896 12.584 18.52 13.568 18.952 14.704C19.384 15.84 19.6 17.072 19.6 18.4C19.6 19.088 19.52 19.768 19.36 20.44C19.2 21.096 18.912 21.672 18.496 22.168C18.816 22.376 19.08 22.648 19.288 22.984C19.512 23.304 19.624 23.672 19.624 24.088V25.72C19.624 26.344 19.392 26.88 18.928 27.328C18.464 27.776 17.896 28 17.224 28H10.888ZM1.288 18.448C1.288 20.384 1.688 22.048 2.488 23.44C3.288 24.816 4.408 25.872 5.848 26.608C7.288 27.344 8.968 27.712 10.888 27.712H17.224C17.816 27.712 18.312 27.52 18.712 27.136C19.128 26.736 19.336 26.264 19.336 25.72V24.088C19.336 23.704 19.232 23.36 19.024 23.056C18.816 22.752 18.552 22.52 18.232 22.36C17.88 22.2 17.552 22.12 17.248 22.12H13.648C13.056 22.12 12.56 22.312 12.16 22.696C11.76 23.064 11.56 23.528 11.56 24.088C11.56 24.184 11.512 24.232 11.416 24.232C11.32 24.232 11.272 24.184 11.272 24.088C11.272 23.448 11.496 22.912 11.944 22.48C12.408 22.048 12.976 21.832 13.648 21.832H17.248C17.424 21.832 17.592 21.856 17.752 21.904C17.912 21.936 18.072 21.984 18.232 22.048C18.648 21.568 18.928 21.008 19.072 20.368C19.232 19.728 19.312 19.072 19.312 18.4C19.312 17.12 19.104 15.928 18.688 14.824C18.288 13.72 17.696 12.76 16.912 11.944C16.128 11.128 15.184 10.496 14.08 10.048C12.992 9.584 11.768 9.352 10.408 9.352C8.648 9.352 7.08 9.72 5.704 10.456C4.328 11.192 3.248 12.24 2.464 13.6C1.68 14.96 1.288 16.576 1.288 18.448Z" fill="black"/>
<path d="M5.68 26.872L5.22505 27.7625L5.22895 27.7645L5.68 26.872ZM2.224 23.608L1.3539 24.1011L1.36057 24.1125L2.224 23.608ZM2.2 13.456L1.33479 12.9546L1.33299 12.9577L2.2 13.456ZM5.536 10.216L6.00711 11.0981L6.01069 11.0962L5.536 10.216ZM14.176 9.784L13.7821 10.7031L13.7899 10.7065L13.7979 10.7098L14.176 9.784ZM17.08 11.752L16.3526 12.4382L16.3593 12.4453L16.3661 12.4522L17.08 11.752ZM18.952 14.704L19.8867 14.3486V14.3486L18.952 14.704ZM19.36 20.44L20.3315 20.677L20.3328 20.6716L19.36 20.44ZM18.496 22.168L17.7298 21.5254L17.0039 22.3908L17.951 23.0064L18.496 22.168ZM19.288 22.984L18.4377 23.5104L18.4526 23.5343L18.4688 23.5575L19.288 22.984ZM18.928 27.328L18.2334 26.6086V26.6086L18.928 27.328ZM2.488 23.44L1.62097 23.9383L1.62349 23.9426L2.488 23.44ZM5.848 26.608L5.39289 27.4984V27.4984L5.848 26.608ZM18.712 27.136L19.4045 27.8574L19.4051 27.8568L18.712 27.136ZM19.024 23.056L19.8493 22.4913V22.4913L19.024 23.056ZM18.232 22.36L18.6792 21.4656L18.6627 21.4573L18.6458 21.4496L18.232 22.36ZM12.16 22.696L12.8371 23.4319L12.8449 23.4247L12.8525 23.4174L12.16 22.696ZM11.944 22.48L11.2626 21.7481L11.2562 21.7541L11.2499 21.7602L11.944 22.48ZM17.752 21.904L17.4647 22.8618L17.5097 22.8754L17.5559 22.8846L17.752 21.904ZM18.232 22.048L17.8606 22.9765L18.5215 23.2408L18.9877 22.7029L18.232 22.048ZM19.072 20.368L18.1019 20.1255L18.099 20.1369L18.0964 20.1485L19.072 20.368ZM18.688 14.824L17.7477 15.1647L17.7522 15.1766L18.688 14.824ZM16.912 11.944L16.1909 12.6368H16.1909L16.912 11.944ZM14.08 10.048L13.6877 10.9678L13.6958 10.9713L13.704 10.9746L14.08 10.048ZM5.704 10.456L6.17565 11.3378H6.17565L5.704 10.456ZM2.464 13.6L3.33035 14.0994L3.33035 14.0994L2.464 13.6ZM10.888 28V27C9.03113 27 7.455 26.6486 6.13105 25.9795L5.68 26.872L5.22895 27.7645C6.88099 28.5994 8.77687 29 10.888 29V28ZM5.68 26.872L6.13494 25.9815C4.8328 25.3163 3.82274 24.362 3.08743 23.1035L2.224 23.608L1.36057 24.1125C2.28926 25.702 3.5832 26.9237 5.22506 27.7625L5.68 26.872ZM2.224 23.608L3.09402 23.115C2.37933 21.8538 2 20.3111 2 18.448H0.999999H-1.19209e-06C-1.19209e-06 20.5849 0.436673 22.4822 1.35398 24.101L2.224 23.608ZM0.999999 18.448H2C2 16.6509 2.37047 15.1663 3.06701 13.9543L2.2 13.456L1.33299 12.9577C0.42953 14.5297 -1.19209e-06 16.3731 -1.19209e-06 18.448H0.999999ZM2.2 13.456L3.0652 13.9574C3.78976 12.7072 4.7667 11.7606 6.00711 11.0981L5.536 10.216L5.06489 9.33392C3.4893 10.1754 2.24224 11.3888 1.3348 12.9546L2.2 13.456ZM5.536 10.216L6.01069 11.0962C7.27108 10.4164 8.7283 10.064 10.408 10.064V9.064V8.064C8.43969 8.064 6.64891 8.47961 5.06131 9.33585L5.536 10.216ZM10.408 9.064V10.064C11.6838 10.064 12.8031 10.2836 13.7821 10.7031L14.176 9.784L14.5699 8.86485C13.3089 8.32444 11.9162 8.064 10.408 8.064V9.064ZM14.176 9.784L13.7979 10.7098C14.8088 11.1227 15.6557 11.6995 16.3526 12.4382L17.08 11.752L17.8074 11.0658C16.9043 10.1085 15.8152 9.37334 14.5541 8.85824L14.176 9.784ZM17.08 11.752L16.3661 12.4522C17.0813 13.1815 17.6322 14.0467 18.0173 15.0594L18.952 14.704L19.8867 14.3486C19.4078 13.0893 18.7107 11.9865 17.7939 11.0518L17.08 11.752ZM18.952 14.704L18.0173 15.0594C18.4023 16.0718 18.6 17.1822 18.6 18.4H19.6H20.6C20.6 16.9618 20.3657 15.6082 19.8867 14.3486L18.952 14.704ZM19.6 18.4H18.6C18.6 19.0097 18.5292 19.6119 18.3872 20.2084L19.36 20.44L20.3328 20.6716C20.5108 19.924 20.6 19.1663 20.6 18.4H19.6ZM19.36 20.44L18.3885 20.203C18.2633 20.7165 18.0428 21.1522 17.7298 21.5254L18.496 22.168L19.2622 22.8106C19.7812 22.1918 20.1367 21.4755 20.3315 20.677L19.36 20.44ZM18.496 22.168L17.951 23.0064C18.1431 23.1313 18.3044 23.295 18.4377 23.5104L19.288 22.984L20.1383 22.4576C19.8556 22.001 19.4889 21.6207 19.041 21.3296L18.496 22.168ZM19.288 22.984L18.4688 23.5575C18.5673 23.6982 18.624 23.8631 18.624 24.088H19.624H20.624C20.624 23.4809 20.4567 22.9098 20.1072 22.4105L19.288 22.984ZM19.624 24.088H18.624V25.72H19.624H20.624V24.088H19.624ZM19.624 25.72H18.624C18.624 26.0626 18.5096 26.3419 18.2334 26.6086L18.928 27.328L19.6226 28.0474C20.2744 27.4181 20.624 26.6254 20.624 25.72H19.624ZM18.928 27.328L18.2334 26.6086C17.9643 26.8684 17.6489 27 17.224 27V28V29C18.1431 29 18.9637 28.6836 19.6226 28.0474L18.928 27.328ZM17.224 28V27H10.888V28V29H17.224V28ZM1.288 18.448H0.287999C0.287999 20.5229 0.717531 22.3663 1.62099 23.9383L2.488 23.44L3.35501 22.9417C2.65847 21.7297 2.288 20.2451 2.288 18.448H1.288ZM2.488 23.44L1.62349 23.9426C2.52155 25.4873 3.78495 26.6766 5.39289 27.4984L5.848 26.608L6.30311 25.7176C5.03105 25.0674 4.05444 24.1447 3.35251 22.9374L2.488 23.44ZM5.848 26.608L5.39289 27.4984C6.99787 28.3188 8.83923 28.712 10.888 28.712V27.712V26.712C9.09677 26.712 7.57813 26.3692 6.30311 25.7176L5.848 26.608ZM10.888 27.712V28.712H17.224V27.712V26.712H10.888V27.712ZM17.224 27.712V28.712C18.0549 28.712 18.8049 28.4331 19.4045 27.8574L18.712 27.136L18.0195 26.4146C17.8191 26.6069 17.5771 26.712 17.224 26.712V27.712ZM18.712 27.136L19.4051 27.8568C20.0039 27.2811 20.336 26.554 20.336 25.72H19.336H18.336C18.336 25.974 18.2521 26.1909 18.0189 26.4152L18.712 27.136ZM19.336 25.72H20.336V24.088H19.336H18.336V25.72H19.336ZM19.336 24.088H20.336C20.336 23.5115 20.1761 22.969 19.8493 22.4913L19.024 23.056L18.1987 23.6207C18.2879 23.751 18.336 23.8965 18.336 24.088H19.336ZM19.024 23.056L19.8493 22.4913C19.5483 22.0514 19.1558 21.7039 18.6792 21.4656L18.232 22.36L17.7848 23.2544C17.9482 23.3361 18.0837 23.4526 18.1987 23.6207L19.024 23.056ZM18.232 22.36L18.6458 21.4496C18.198 21.2461 17.728 21.12 17.248 21.12V22.12V23.12C17.376 23.12 17.562 23.1539 17.8182 23.2704L18.232 22.36ZM17.248 22.12V21.12H13.648V22.12V23.12H17.248V22.12ZM13.648 22.12V21.12C12.8171 21.12 12.0671 21.3989 11.4675 21.9746L12.16 22.696L12.8525 23.4174C13.0529 23.2251 13.2949 23.12 13.648 23.12V22.12ZM12.16 22.696L11.4829 21.9601C10.8702 22.5238 10.56 23.2579 10.56 24.088H11.56H12.56C12.56 23.7981 12.6498 23.6042 12.8371 23.4319L12.16 22.696ZM11.56 24.088H10.56C10.56 23.9819 10.5872 23.7186 10.8169 23.4889C11.0466 23.2592 11.3099 23.232 11.416 23.232V24.232V25.232C11.6181 25.232 11.9534 25.1808 12.2311 24.9031C12.5088 24.6254 12.56 24.2901 12.56 24.088H11.56ZM11.416 24.232V23.232C11.5221 23.232 11.7854 23.2592 12.0151 23.4889C12.2448 23.7186 12.272 23.9819 12.272 24.088H11.272H10.272C10.272 24.2901 10.3232 24.6254 10.6009 24.9031C10.8786 25.1808 11.2139 25.232 11.416 25.232V24.232ZM11.272 24.088H12.272C12.272 23.7109 12.3917 23.4374 12.6381 23.1998L11.944 22.48L11.2499 21.7602C10.6003 22.3866 10.272 23.1851 10.272 24.088H11.272ZM11.944 22.48L12.6254 23.2119C12.8925 22.9632 13.2122 22.832 13.648 22.832V21.832V20.832C12.7398 20.832 11.9235 21.1328 11.2626 21.7481L11.944 22.48ZM13.648 21.832V22.832H17.248V21.832V20.832H13.648V21.832ZM17.248 21.832V22.832C17.3319 22.832 17.4028 22.8433 17.4647 22.8618L17.752 21.904L18.0393 20.9462C17.7812 20.8687 17.5161 20.832 17.248 20.832V21.832ZM17.752 21.904L17.5559 22.8846C17.6527 22.904 17.7542 22.9339 17.8606 22.9765L18.232 22.048L18.6034 21.1195C18.3898 21.0341 18.1713 20.968 17.9481 20.9234L17.752 21.904ZM18.232 22.048L18.9877 22.7029C19.5154 22.094 19.8686 21.3831 20.0476 20.5875L19.072 20.368L18.0964 20.1485C17.9874 20.6329 17.7806 21.042 17.4763 21.3931L18.232 22.048ZM19.072 20.368L20.0421 20.6105C20.2223 19.8897 20.312 19.1522 20.312 18.4H19.312H18.312C18.312 18.9918 18.2417 19.5663 18.1019 20.1255L19.072 20.368ZM19.312 18.4H20.312C20.312 17.0098 20.0857 15.6973 19.6238 14.4714L18.688 14.824L17.7522 15.1766C18.1223 16.1587 18.312 17.2302 18.312 18.4H19.312ZM18.688 14.824L19.6282 14.4834C19.1824 13.253 18.5176 12.1718 17.6331 11.2512L16.912 11.944L16.1909 12.6368C16.8744 13.3482 17.3936 14.187 17.7478 15.1646L18.688 14.824ZM16.912 11.944L17.6331 11.2512C16.7467 10.3285 15.6832 9.61936 14.456 9.12139L14.08 10.048L13.704 10.9746C14.6848 11.3726 15.5093 11.9275 16.1909 12.6368L16.912 11.944ZM14.08 10.048L14.4723 9.12816C13.2431 8.60393 11.8828 8.352 10.408 8.352V9.352V10.352C11.6532 10.352 12.7409 10.5641 13.6877 10.9678L14.08 10.048ZM10.408 9.352V8.352C8.50477 8.352 6.77115 8.75113 5.23235 9.57421L5.704 10.456L6.17565 11.3378C7.38885 10.6889 8.79123 10.352 10.408 10.352V9.352ZM5.704 10.456L5.23235 9.57421C3.69061 10.3989 2.47433 11.5798 1.59764 13.1006L2.464 13.6L3.33035 14.0994C4.02167 12.9002 4.96538 11.9851 6.17565 11.3378L5.704 10.456ZM2.464 13.6L1.59764 13.1006C0.710606 14.6393 0.287999 16.4345 0.287999 18.448H1.288H2.288C2.288 16.7175 2.64939 15.2807 3.33035 14.0994L2.464 13.6Z" fill="black" mask="url(#path-1-outside-1_3_68)"/>
<path d="M5.28 17.4096C5.28 18.0899 5.83196 18.6419 6.5122 18.6419C7.19244 18.6419 7.7444 18.0899 7.7444 17.4096C7.7444 16.7293 7.19244 16.1772 6.5122 16.1772C5.83196 16.1772 5.28 16.7293 5.28 17.4096Z" fill="black"/>
<path d="M11.4105 17.4403C11.4295 16.76 10.8934 16.193 10.2131 16.174C9.53287 16.155 8.966 16.6911 8.947 17.3715C8.928 18.0518 9.46406 18.6187 10.1443 18.6377C10.8246 18.6568 11.3915 18.1206 11.4105 17.4403Z" fill="black"/>
<path d="M14.0336 18.6296C14.7054 18.5211 15.1621 17.8885 15.0536 17.2166C14.9452 16.5447 14.3126 16.0879 13.6408 16.1964C12.969 16.3048 12.5123 16.9375 12.6207 17.6094C12.7292 18.2813 13.3617 18.738 14.0336 18.6296Z" fill="black"/>
</svg>
