<svg viewBox="0 7 21 21"  fill="none" xmlns="http://www.w3.org/2000/svg">
<mask id="path-1-outside-1_3_68" maskUnits="userSpaceOnUse" x="0" y="8" width="20" height="21" fill="black">
<rect fill="white" y="8" width="20" height="21"/>
<path d="M10.608 28C8.624 28 6.888 27.624 5.4 26.872C3.928 26.12 2.776 25.032 1.944 23.608C1.128 22.168 0.72 20.448 0.72 18.448C0.72 16.512 1.12 14.848 1.92 13.456C2.736 12.048 3.848 10.968 5.256 10.216C6.68 9.448 8.304 9.064 10.128 9.064C11.52 9.064 12.776 9.304 13.896 9.784C15.032 10.248 16 10.904 16.8 11.752C17.616 12.584 18.24 13.568 18.672 14.704C19.104 15.84 19.32 17.072 19.32 18.4C19.32 19.088 19.24 19.768 19.08 20.44C18.92 21.096 18.632 21.672 18.216 22.168C18.536 22.376 18.8 22.648 19.008 22.984C19.232 23.304 19.344 23.672 19.344 24.088V25.72C19.344 26.344 19.112 26.88 18.648 27.328C18.184 27.776 17.616 28 16.944 28H10.608ZM1.008 18.448C1.008 20.384 1.408 22.048 2.208 23.44C3.008 24.816 4.128 25.872 5.568 26.608C7.008 27.344 8.688 27.712 10.608 27.712H16.944C17.536 27.712 18.032 27.52 18.432 27.136C18.848 26.736 19.056 26.264 19.056 25.72V24.088C19.056 23.704 18.952 23.36 18.744 23.056C18.536 22.752 18.272 22.52 17.952 22.36C17.6 22.2 17.272 22.12 16.968 22.12H13.368C12.776 22.12 12.28 22.312 11.88 22.696C11.48 23.064 11.28 23.528 11.28 24.088C11.28 24.184 11.232 24.232 11.136 24.232C11.04 24.232 10.992 24.184 10.992 24.088C10.992 23.448 11.216 22.912 11.664 22.48C12.128 22.048 12.696 21.832 13.368 21.832H16.968C17.144 21.832 17.312 21.856 17.472 21.904C17.632 21.936 17.792 21.984 17.952 22.048C18.368 21.568 18.648 21.008 18.792 20.368C18.952 19.728 19.032 19.072 19.032 18.4C19.032 17.12 18.824 15.928 18.408 14.824C18.008 13.72 17.416 12.76 16.632 11.944C15.848 11.128 14.904 10.496 13.8 10.048C12.712 9.584 11.488 9.352 10.128 9.352C8.368 9.352 6.8 9.72 5.424 10.456C4.048 11.192 2.968 12.24 2.184 13.6C1.4 14.96 1.008 16.576 1.008 18.448Z"/>
</mask>
<path d="M10.608 28C8.624 28 6.888 27.624 5.4 26.872C3.928 26.12 2.776 25.032 1.944 23.608C1.128 22.168 0.72 20.448 0.72 18.448C0.72 16.512 1.12 14.848 1.92 13.456C2.736 12.048 3.848 10.968 5.256 10.216C6.68 9.448 8.304 9.064 10.128 9.064C11.52 9.064 12.776 9.304 13.896 9.784C15.032 10.248 16 10.904 16.8 11.752C17.616 12.584 18.24 13.568 18.672 14.704C19.104 15.84 19.32 17.072 19.32 18.4C19.32 19.088 19.24 19.768 19.08 20.44C18.92 21.096 18.632 21.672 18.216 22.168C18.536 22.376 18.8 22.648 19.008 22.984C19.232 23.304 19.344 23.672 19.344 24.088V25.72C19.344 26.344 19.112 26.88 18.648 27.328C18.184 27.776 17.616 28 16.944 28H10.608ZM1.008 18.448C1.008 20.384 1.408 22.048 2.208 23.44C3.008 24.816 4.128 25.872 5.568 26.608C7.008 27.344 8.688 27.712 10.608 27.712H16.944C17.536 27.712 18.032 27.52 18.432 27.136C18.848 26.736 19.056 26.264 19.056 25.72V24.088C19.056 23.704 18.952 23.36 18.744 23.056C18.536 22.752 18.272 22.52 17.952 22.36C17.6 22.2 17.272 22.12 16.968 22.12H13.368C12.776 22.12 12.28 22.312 11.88 22.696C11.48 23.064 11.28 23.528 11.28 24.088C11.28 24.184 11.232 24.232 11.136 24.232C11.04 24.232 10.992 24.184 10.992 24.088C10.992 23.448 11.216 22.912 11.664 22.48C12.128 22.048 12.696 21.832 13.368 21.832H16.968C17.144 21.832 17.312 21.856 17.472 21.904C17.632 21.936 17.792 21.984 17.952 22.048C18.368 21.568 18.648 21.008 18.792 20.368C18.952 19.728 19.032 19.072 19.032 18.4C19.032 17.12 18.824 15.928 18.408 14.824C18.008 13.72 17.416 12.76 16.632 11.944C15.848 11.128 14.904 10.496 13.8 10.048C12.712 9.584 11.488 9.352 10.128 9.352C8.368 9.352 6.8 9.72 5.424 10.456C4.048 11.192 2.968 12.24 2.184 13.6C1.4 14.96 1.008 16.576 1.008 18.448Z" fill="currentColor"/>
<path d="M5.4 26.872L5.30901 27.0501L5.30979 27.0505L5.4 26.872ZM1.944 23.608L1.76998 23.7066L1.77131 23.7089L1.944 23.608ZM1.92 13.456L1.74696 13.3557L1.7466 13.3563L1.92 13.456ZM5.256 10.216L5.35022 10.3924L5.35094 10.392L5.256 10.216ZM13.896 9.784L13.8172 9.96785L13.8204 9.96915L13.896 9.784ZM16.8 11.752L16.6545 11.8893L16.6572 11.892L16.8 11.752ZM18.672 14.704L18.8589 14.6329V14.6329L18.672 14.704ZM19.08 20.44L19.2743 20.4874L19.2746 20.4863L19.08 20.44ZM18.216 22.168L18.0628 22.0395L17.9176 22.2126L18.107 22.3357L18.216 22.168ZM19.008 22.984L18.8377 23.0894L18.8442 23.0987L19.008 22.984ZM18.648 27.328L18.5091 27.1841V27.1841L18.648 27.328ZM2.208 23.44L2.0346 23.5397L2.0351 23.5405L2.208 23.44ZM5.568 26.608L5.47698 26.7861V26.7861L5.568 26.608ZM18.432 27.136L18.5705 27.2803L18.5706 27.2802L18.432 27.136ZM18.744 23.056L18.9091 22.9431V22.9431L18.744 23.056ZM17.952 22.36L18.0415 22.181L18.0348 22.1779L17.952 22.36ZM11.88 22.696L12.0154 22.8432L12.0185 22.8403L11.88 22.696ZM11.664 22.48L11.5277 22.3336L11.5252 22.336L11.664 22.48ZM17.472 21.904L17.4145 22.0956L17.4235 22.0983L17.4328 22.1001L17.472 21.904ZM17.952 22.048L17.8777 22.2337L18.0099 22.2866L18.1031 22.179L17.952 22.048ZM18.792 20.368L18.5979 20.3195L18.5969 20.3241L18.792 20.368ZM18.408 14.824L18.2199 14.8921L18.2208 14.8945L18.408 14.824ZM16.632 11.944L16.4878 12.0826V12.0826L16.632 11.944ZM13.8 10.048L13.7215 10.232L13.7248 10.2333L13.8 10.048ZM5.424 10.456L5.51833 10.6324V10.6324L5.424 10.456ZM2.184 13.6L2.35727 13.6999V13.6999L2.184 13.6ZM10.608 28V27.8C8.64943 27.8 6.9454 27.4289 5.49021 26.6935L5.4 26.872L5.30979 27.0505C6.8306 27.8191 8.59857 28.2 10.608 28.2V28ZM5.4 26.872L5.49099 26.6939C4.05296 25.9593 2.92935 24.898 2.11669 23.5071L1.944 23.608L1.77131 23.7089C2.62265 25.166 3.80304 26.2807 5.30901 27.0501L5.4 26.872ZM1.944 23.608L2.118 23.5094C1.32227 22.1052 0.92 20.4206 0.92 18.448H0.72H0.52C0.52 20.4754 0.933735 22.2308 1.77 23.7066L1.944 23.608ZM0.72 18.448H0.92C0.92 16.5398 1.31409 14.9117 2.0934 13.5557L1.92 13.456L1.7466 13.3563C0.925906 14.7843 0.52 16.4842 0.52 18.448H0.72ZM1.92 13.456L2.09304 13.5563C2.89075 12.1798 3.97574 11.1265 5.35022 10.3924L5.256 10.216L5.16178 10.0396C3.72026 10.8095 2.58125 11.9162 1.74696 13.3557L1.92 13.456ZM5.256 10.216L5.35094 10.392C6.74222 9.64168 8.33286 9.264 10.128 9.264V9.064V8.864C8.27514 8.864 6.61778 9.25432 5.16106 10.04L5.256 10.216ZM10.128 9.064V9.264C11.4968 9.264 12.7254 9.49991 13.8172 9.96783L13.896 9.784L13.9748 9.60017C12.8266 9.10809 11.5432 8.864 10.128 8.864V9.064ZM13.896 9.784L13.8204 9.96915C14.9314 10.4229 15.8751 11.0631 16.6545 11.8892L16.8 11.752L16.9455 11.6148C16.1249 10.7449 15.1326 10.0731 13.9716 9.59885L13.896 9.784ZM16.8 11.752L16.6572 11.892C17.4531 12.7035 18.0624 13.6637 18.4851 14.7751L18.672 14.704L18.8589 14.6329C18.4176 13.4723 17.7789 12.4645 16.9428 11.612L16.8 11.752ZM18.672 14.704L18.4851 14.7751C18.9077 15.8864 19.12 17.094 19.12 18.4H19.32H19.52C19.52 17.05 19.3003 15.7936 18.8589 14.6329L18.672 14.704ZM19.32 18.4H19.12C19.12 19.0723 19.0418 19.7368 18.8854 20.3937L19.08 20.44L19.2746 20.4863C19.4382 19.7992 19.52 19.1037 19.52 18.4H19.32ZM19.08 20.44L18.8857 20.3926C18.7327 21.0201 18.4582 21.568 18.0628 22.0395L18.216 22.168L18.3692 22.2965C18.8058 21.776 19.1073 21.1719 19.2743 20.4874L19.08 20.44ZM18.216 22.168L18.107 22.3357C18.4014 22.5271 18.6449 22.7774 18.8379 23.0893L19.008 22.984L19.1781 22.8787C18.9551 22.5186 18.6706 22.2249 18.325 22.0003L18.216 22.168ZM19.008 22.984L18.8442 23.0987C19.0431 23.3828 19.144 23.7102 19.144 24.088H19.344H19.544C19.544 23.6338 19.4209 23.2252 19.1718 22.8693L19.008 22.984ZM19.344 24.088H19.144V25.72H19.344H19.544V24.088H19.344ZM19.344 25.72H19.144C19.144 26.2877 18.9355 26.7724 18.5091 27.1841L18.648 27.328L18.7869 27.4719C19.2885 26.9876 19.544 26.4003 19.544 25.72H19.344ZM18.648 27.328L18.5091 27.1841C18.0841 27.5945 17.5666 27.8 16.944 27.8V28V28.2C17.6654 28.2 18.2839 27.9575 18.7869 27.4719L18.648 27.328ZM16.944 28V27.8H10.608V28V28.2H16.944V28ZM1.008 18.448H0.808C0.808 20.4118 1.21391 22.1117 2.0346 23.5397L2.208 23.44L2.3814 23.3403C1.60209 21.9843 1.208 20.3562 1.208 18.448H1.008ZM2.208 23.44L2.0351 23.5405C2.85471 24.9503 4.00339 26.0329 5.47698 26.7861L5.568 26.608L5.65902 26.4299C4.25261 25.7111 3.16129 24.6817 2.3809 23.3395L2.208 23.44ZM5.568 26.608L5.47698 26.7861C6.94998 27.539 8.66225 27.912 10.608 27.912V27.712V27.512C8.71375 27.512 7.06603 27.149 5.65902 26.4299L5.568 26.608ZM10.608 27.712V27.912H16.944V27.712V27.512H10.608V27.712ZM16.944 27.712V27.912C17.5838 27.912 18.1306 27.7026 18.5705 27.2803L18.432 27.136L18.2935 26.9917C17.9334 27.3374 17.4882 27.512 16.944 27.512V27.712ZM18.432 27.136L18.5706 27.2802C19.0232 26.845 19.256 26.322 19.256 25.72H19.056H18.856C18.856 26.206 18.6728 26.627 18.2934 26.9918L18.432 27.136ZM19.056 25.72H19.256V24.088H19.056H18.856V25.72H19.056ZM19.056 24.088H19.256C19.256 23.6655 19.1408 23.2818 18.9091 22.9431L18.744 23.056L18.5789 23.1689C18.7632 23.4382 18.856 23.7425 18.856 24.088H19.056ZM18.744 23.056L18.9091 22.9431C18.6825 22.6119 18.3928 22.3568 18.0414 22.1811L17.952 22.36L17.8626 22.5389C18.1512 22.6832 18.3895 22.8921 18.5789 23.1689L18.744 23.056ZM17.952 22.36L18.0348 22.1779C17.6636 22.0092 17.3072 21.92 16.968 21.92V22.12V22.32C17.2368 22.32 17.5364 22.3908 17.8692 22.5421L17.952 22.36ZM16.968 22.12V21.92H13.368V22.12V22.32H16.968V22.12ZM13.368 22.12V21.92C12.7282 21.92 12.1814 22.1294 11.7415 22.5517L11.88 22.696L12.0185 22.8403C12.3786 22.4946 12.8238 22.32 13.368 22.32V22.12ZM11.88 22.696L11.7446 22.5488C11.302 22.956 11.08 23.474 11.08 24.088H11.28H11.48C11.48 23.582 11.658 23.172 12.0154 22.8432L11.88 22.696ZM11.28 24.088H11.08C11.08 24.1052 11.0758 24.0813 11.1026 24.0546C11.1293 24.0278 11.1532 24.032 11.136 24.032V24.232V24.432C11.2148 24.432 11.3107 24.4122 11.3854 24.3374C11.4602 24.2627 11.48 24.1668 11.48 24.088H11.28ZM11.136 24.232V24.032C11.1188 24.032 11.1427 24.0278 11.1694 24.0546C11.1962 24.0813 11.192 24.1052 11.192 24.088H10.992H10.792C10.792 24.1668 10.8118 24.2627 10.8866 24.3374C10.9613 24.4122 11.0572 24.432 11.136 24.432V24.232ZM10.992 24.088H11.192C11.192 23.5006 11.3951 23.0171 11.8028 22.624L11.664 22.48L11.5252 22.336C11.0369 22.8069 10.792 23.3954 10.792 24.088H10.992ZM11.664 22.48L11.8003 22.6264C12.2249 22.231 12.7432 22.032 13.368 22.032V21.832V21.632C12.6488 21.632 12.0311 21.865 11.5277 22.3336L11.664 22.48ZM13.368 21.832V22.032H16.968V21.832V21.632H13.368V21.832ZM16.968 21.832V22.032C17.1256 22.032 17.2742 22.0535 17.4145 22.0956L17.472 21.904L17.5295 21.7124C17.3498 21.6585 17.1624 21.632 16.968 21.632V21.832ZM17.472 21.904L17.4328 22.1001C17.5802 22.1296 17.7284 22.174 17.8777 22.2337L17.952 22.048L18.0263 21.8623C17.8556 21.794 17.6839 21.7424 17.5112 21.7079L17.472 21.904ZM17.952 22.048L18.1031 22.179C18.5415 21.6732 18.8361 21.083 18.9871 20.4119L18.792 20.368L18.5969 20.3241C18.4599 20.933 18.1945 21.4628 17.8009 21.917L17.952 22.048ZM18.792 20.368L18.986 20.4165C19.1501 19.7603 19.232 19.088 19.232 18.4H19.032H18.832C18.832 19.056 18.7539 19.6957 18.598 20.3195L18.792 20.368ZM19.032 18.4H19.232C19.232 17.098 19.0203 15.8819 18.5952 14.7535L18.408 14.824L18.2208 14.8945C18.6277 15.9741 18.832 17.142 18.832 18.4H19.032ZM18.408 14.824L18.596 14.7559C18.1869 13.6266 17.5803 12.6424 16.7762 11.8054L16.632 11.944L16.4878 12.0826C17.2517 12.8776 17.8291 13.8134 18.22 14.8921L18.408 14.824ZM16.632 11.944L16.7762 11.8054C15.9717 10.9681 15.0038 10.3207 13.8752 9.86268L13.8 10.048L13.7248 10.2333C14.8042 10.6713 15.7243 11.2879 16.4878 12.0826L16.632 11.944ZM13.8 10.048L13.8785 9.86403C12.7622 9.38799 11.511 9.152 10.128 9.152V9.352V9.552C11.465 9.552 12.6618 9.78001 13.7215 10.232L13.8 10.048ZM10.128 9.352V9.152C8.33935 9.152 6.73823 9.52623 5.32967 10.2796L5.424 10.456L5.51833 10.6324C6.86177 9.91377 8.39665 9.552 10.128 9.552V9.352ZM5.424 10.456L5.32967 10.2796C3.92052 11.0334 2.81327 12.108 2.01073 13.5001L2.184 13.6L2.35727 13.6999C3.12273 12.372 4.17548 11.3506 5.51833 10.6324L5.424 10.456ZM2.184 13.6L2.01073 13.5001C1.20612 14.8959 0.808 16.5477 0.808 18.448H1.008H1.208C1.208 16.6043 1.59388 15.0241 2.35727 13.6999L2.184 13.6Z" fill="currentColor" mask="url(#path-1-outside-1_3_68)"/>
<path d="M5 17.4096C5 18.0899 5.55196 18.6419 6.2322 18.6419C6.91245 18.6419 7.46441 18.0899 7.46441 17.4096C7.46441 16.7293 6.91245 16.1772 6.2322 16.1772C5.55196 16.1772 5 16.7293 5 17.4096Z" fill="currentColor"/>
<path d="M11.1305 17.4403C11.1495 16.76 10.6134 16.193 9.93312 16.174C9.25286 16.155 8.686 16.6911 8.667 17.3715C8.64799 18.0518 9.18405 18.6187 9.86431 18.6377C10.5446 18.6568 11.1115 18.1206 11.1305 17.4403Z" fill="currentColor"/>
<path d="M13.7536 18.6296C14.4254 18.5211 14.8821 17.8885 14.7736 17.2166C14.6652 16.5447 14.0326 16.0879 13.3608 16.1964C12.689 16.3049 12.2323 16.9375 12.3407 17.6094C12.4492 18.2813 13.0817 18.738 13.7536 18.6296Z" fill="currentColor"/>
<style>:root{color:#000}@media(prefers-color-scheme:dark){:root{color:#fff}}</style>
</svg>
